<svg width="512" height="512"><path d="M372.981 205.913h-83.478V89.043c0-16.473-21.482-22.929-30.609-9.238L125.329 280.153c-7.346 11.13.668 25.934 13.913 25.934h83.478v116.87c0 16.584 21.482 22.929 30.609 9.238l2.671-4.007 130.894-196.341c7.346-11.13-.668-25.934-13.913-25.934" style="fill:#ffe477"/><path d="M512 256c0 141.134-114.867 256-256 256-68.674 0-133.677-27.603-181.315-75.464v19.812a16.673 16.673 0 0 1-16.696 16.696c-9.238 0-16.696-7.457-16.696-16.696v-63.221c-2.226-11.02 6.679-20.257 16.696-20.257h66.783a16.673 16.673 0 0 1 16.696 16.696 16.673 16.673 0 0 1-16.696 16.696H92.049C133.899 452.008 193.113 478.61 256 478.61c122.769 0 222.609-99.84 222.609-222.609 0-21.148-3.005-42.073-8.793-62.108-2.56-8.904 2.449-18.143 11.353-20.703 8.793-2.56 18.143 2.56 20.704 11.353C508.548 207.694 512 231.736 512 256M473.043 55.652v66.783c0 8.904-6.568 16.696-18.475 16.696h-65.003c-9.239 0-16.696-7.457-16.696-16.696s7.456-16.696 16.696-16.696h30.386C378.101 59.993 318.887 33.391 256 33.391c-122.769 0-222.609 99.84-222.609 222.609 0 21.148 3.005 42.073 8.793 62.108 2.56 8.904-2.449 18.143-11.353 20.703a17 17 0 0 1-4.675.668c-7.235 0-13.913-4.786-16.029-12.021C3.452 304.306 0 280.264 0 256 0 114.866 114.867 0 256 0c69.899 0 135.791 28.494 183.652 77.913V55.652a16.673 16.673 0 0 1 16.696-16.696c9.239.001 16.695 7.458 16.695 16.696" style="fill:#7ccc92"/><path d="M512 256c0 141.134-114.867 256-256 256v-33.391c122.769 0 222.609-99.84 222.609-222.609 0-21.148-3.005-42.073-8.793-62.108-2.56-8.904 2.449-18.143 11.353-20.703 8.793-2.56 18.143 2.56 20.704 11.353C508.548 207.694 512 231.736 512 256M473.043 55.652v66.783c0 8.904-6.568 16.696-18.475 16.696h-65.003c-9.239 0-16.696-7.457-16.696-16.696s7.456-16.696 16.696-16.696h30.386C378.101 59.993 318.887 33.391 256 33.391V0c69.899 0 135.791 28.494 183.652 77.913V55.652a16.673 16.673 0 0 1 16.696-16.696c9.239.001 16.695 7.458 16.695 16.696" style="fill:#34b772"/><path d="M386.894 231.847 256 428.188V84.146l2.894-4.341c9.127-13.69 30.609-7.235 30.609 9.238v116.87h83.478c13.245 0 21.259 14.804 13.913 25.934" style="fill:#ffb655"/></svg>