<svg xmlns="http://www.w3.org/2000/svg" width="512" height="512" viewBox="0 0 60 60"><path d="M21.725 46.472h16.367v8.863H21.725z" style="fill:#666;stroke-width:1"/><path d="M22.57 47.201h9.738l-9.738 6.693z" style="fill:#333;stroke-width:1"/><path d="M369.521 487.281H142.496c-8.826-.026-15.974-7.174-16-16 .026-8.826 7.174-15.974 16-16h227.008c8.826.026 15.974 7.174 16 16 .001 8.83-7.154 15.992-15.983 16m110.48-110.56H32c-17.652-.052-31.948-14.349-32-32v-288c.052-17.652 14.349-31.947 32-32h448c17.651.052 31.947 14.349 32 32v288c-.052 17.651-14.349 31.948-31.999 32" style="fill:#9f9f9f" transform="matrix(.11361 0 0 .10856 .824 5.558)"/><path d="M3.319 10.774h53.182v33.024H3.319z" style="stroke-width:1"/><path d="M36.798 24.289h-4.891v-6.82c0-.962-1.259-1.338-1.794-.538L22.288 28.62a.974.974 0 0 0 .814 1.513h4.892v6.819c0 .969 1.257 1.338 1.793.541l.156-.236 7.67-11.455a.975.975 0 0 0-.815-1.513" style="stroke-width:1.563;stroke-opacity:.7;paint-order:stroke;fill:#e6d581"/><path d="M512 256c0 141.134-114.867 256-256 256-68.674 0-133.677-27.603-181.315-75.464v19.812a16.673 16.673 0 0 1-16.696 16.696c-9.238 0-16.696-7.457-16.696-16.696v-63.221c-2.226-11.02 6.679-20.257 16.696-20.257h66.783a16.673 16.673 0 0 1 16.696 16.696 16.673 16.673 0 0 1-16.696 16.696H92.049C133.899 452.008 193.113 478.61 256 478.61c122.769 0 222.609-99.84 222.609-222.609 0-21.148-3.005-42.073-8.793-62.108-2.56-8.904 2.449-18.143 11.353-20.703 8.793-2.56 18.143 2.56 20.704 11.353C508.548 207.694 512 231.736 512 256M473.043 55.652v66.783c0 8.904-6.568 16.696-18.475 16.696h-65.003c-9.239 0-16.696-7.457-16.696-16.696s7.456-16.696 16.696-16.696h30.386C378.101 59.993 318.887 33.391 256 33.391c-122.769 0-222.609 99.84-222.609 222.609 0 21.148 3.005 42.073 8.793 62.108 2.56 8.904-2.449 18.143-11.353 20.703a17 17 0 0 1-4.675.668c-7.235 0-13.913-4.786-16.029-12.021C3.452 304.306 0 280.264 0 256 0 114.866 114.867 0 256 0c69.899 0 135.791 28.494 183.652 77.913V55.652a16.673 16.673 0 0 1 16.696-16.696c9.239.001 16.695 7.458 16.695 16.696" style="stroke-opacity:.7;paint-order:stroke;fill:#78c288" transform="matrix(.0586 0 0 .05835 14.943 12.273)"/><path d="M512 256c0 141.134-114.867 256-256 256v-33.391c122.769 0 222.609-99.84 222.609-222.609 0-21.148-3.005-42.073-8.793-62.108-2.56-8.904 2.449-18.143 11.353-20.703 8.793-2.56 18.143 2.56 20.704 11.353C508.548 207.694 512 231.736 512 256M473.043 55.652v66.783c0 8.904-6.568 16.696-18.475 16.696h-65.003c-9.239 0-16.696-7.457-16.696-16.696s7.456-16.696 16.696-16.696h30.386C378.101 59.993 318.887 33.391 256 33.391V0c69.899 0 135.791 28.494 183.652 77.913V55.652a16.673 16.673 0 0 1 16.696-16.696c9.239.001 16.695 7.458 16.695 16.696" style="stroke-opacity:.7;paint-order:stroke;fill:#429b59" transform="matrix(.0586 0 0 .05835 14.943 12.273)"/><path d="m37.613 25.802-7.67 11.455V17.184l.17-.253c.535-.8 1.794-.424 1.794.538v6.82h4.891a.975.975 0 0 1 .815 1.513" style="stroke-width:1.563;stroke-opacity:.7;paint-order:stroke;fill:#f6b356"/></svg>