<?xml version="1.0" encoding="utf-8"?>
<svg version="1.1" id="Layer_1" xmlns="http://www.w3.org/2000/svg" viewBox="0 0 512.001 512.001" xmlns:bx="https://boxy-svg.com" width="512.001px" height="512.001px"><defs><bx:export><bx:file format="svg" path="Unbetitelt.svg"/><bx:file format="svg" href="#object-0" path="Unbetitelt 2.svg"/><bx:file format="svg" href="#object-1" path="Unbetitelt 3.svg"/><bx:file format="svg" href="#object-2" path="Unbetitelt 4.svg"/><bx:file format="svg" href="#object-3" path="Unbetitelt 5.svg"/></bx:export></defs><rect x="183.974" y="357.983" style="fill:#666666;" width="144.051" height="108.341"/><polygon style="fill:#333333;" points="183.976,376.721 269.688,376.721 183.976,434.625 "/><g><path style="fill:#D6D6D6;" d="M369.521,487.281H142.496c-8.826-0.026-15.974-7.174-16-16l0,0c0.026-8.826,7.174-15.974,16-16 h227.008c8.826,0.026,15.974,7.174,16,16l0,0C385.505,480.111,378.35,487.273,369.521,487.281z"/><path style="fill:#D6D6D6;" d="M480.001,376.721H32c-17.652-0.052-31.948-14.349-32-32v-288c0.052-17.652,14.349-31.947,32-32h448 c17.651,0.052,31.947,14.349,32,32v288C511.948,362.372,497.651,376.669,480.001,376.721z"/></g><rect x="21.968" y="46.654" width="468.096" height="308.124"/><path style="fill: rgb(255, 228, 119); stroke-width: 1.563;" d="M 317.263 175.102 L 274.992 175.102 L 274.992 114.754 C 274.992 106.248 264.114 102.913 259.493 109.983 L 191.859 213.437 C 188.139 219.185 192.197 226.828 198.904 226.828 L 241.175 226.828 L 241.175 287.177 C 241.175 295.74 252.053 299.016 256.674 291.947 L 258.027 289.878 L 324.308 188.493 C 328.028 182.746 323.97 175.102 317.263 175.102 Z" id="object-0"/><g transform="matrix(0.506372, 0, 0, 0.516368, 128.395693, 68.775033)" style="" id="object-1"><path style="fill:#7CCC92;" d="M512,256c0,141.134-114.867,256-256,256c-68.674,0-133.677-27.603-181.315-75.464v19.812 c0,9.238-7.456,16.696-16.696,16.696c-9.238,0-16.696-7.457-16.696-16.696v-63.221c-2.226-11.02,6.679-20.257,16.696-20.257h66.783 c9.239,0,16.696,7.457,16.696,16.696c0,9.238-7.456,16.696-16.696,16.696H92.049c41.85,45.746,101.064,72.348,163.951,72.348 c122.769,0,222.609-99.84,222.609-222.609c0-21.148-3.005-42.073-8.793-62.108c-2.56-8.904,2.449-18.143,11.353-20.703 c8.793-2.56,18.143,2.56,20.704,11.353C508.548,207.694,512,231.736,512,256z"/><path style="fill:#7CCC92;" d="M473.043,55.652v66.783c0,8.904-6.568,16.696-18.475,16.696c-0.111,0-0.111,0-0.111,0h-64.892 c-9.239,0-16.696-7.457-16.696-16.696s7.456-16.696,16.696-16.696h30.386C378.101,59.993,318.887,33.391,256,33.391 c-122.769,0-222.609,99.84-222.609,222.609c0,21.148,3.005,42.073,8.793,62.108c2.56,8.904-2.449,18.143-11.353,20.703 c-1.558,0.445-3.117,0.668-4.675,0.668c-7.235,0-13.913-4.786-16.029-12.021C3.452,304.306,0,280.264,0,256 C0,114.866,114.867,0,256,0c69.899,0,135.791,28.494,183.652,77.913V55.652c0-9.238,7.456-16.696,16.696-16.696 C465.587,38.957,473.043,46.414,473.043,55.652z"/></g><g transform="matrix(0.506372, 0, 0, 0.516368, 128.395693, 68.775033)" style="" id="object-2"><path style="fill:#34B772;" d="M512,256c0,141.134-114.867,256-256,256v-33.391c122.769,0,222.609-99.84,222.609-222.609 c0-21.148-3.005-42.073-8.793-62.108c-2.56-8.904,2.449-18.143,11.353-20.703c8.793-2.56,18.143,2.56,20.704,11.353 C508.548,207.694,512,231.736,512,256z"/><path style="fill:#34B772;" d="M473.043,55.652v66.783c0,8.904-6.568,16.696-18.475,16.696c-0.111,0-0.111,0-0.111,0h-64.892 c-9.239,0-16.696-7.457-16.696-16.696s7.456-16.696,16.696-16.696h30.386C378.101,59.993,318.887,33.391,256,33.391V0 c69.899,0,135.791,28.494,183.652,77.913V55.652c0-9.238,7.456-16.696,16.696-16.696C465.587,38.957,473.043,46.414,473.043,55.652 z"/></g><path style="fill: rgb(255, 182, 85); stroke-width: 1.563;" d="M 324.308 188.493 L 258.027 289.878 L 258.027 112.225 L 259.493 109.983 C 264.114 102.913 274.992 106.248 274.992 114.754 L 274.992 175.102 L 317.263 175.102 C 323.97 175.102 328.028 182.746 324.308 188.493 Z" id="object-3"/></svg>